<mxfile host="app.diagrams.net" modified="2020-11-03T11:17:04.058Z" agent="5.0 (X11; Linux x86_64) AppleWebKit/537.36 (KHTML, like Gecko) Chrome/83.0.4103.116 Safari/537.36" etag="NgSPX1AY1dVBA8u08Whd" version="13.8.8" type="github">
  <diagram id="6a731a19-8d31-9384-78a2-239565b7b9f0" name="Page-1">
    <mxGraphModel dx="1391" dy="945" grid="1" gridSize="10" guides="1" tooltips="1" connect="1" arrows="1" fold="1" page="1" pageScale="1" pageWidth="1169" pageHeight="827" background="#ffffff" math="0" shadow="0">
      <root>
        <mxCell id="0" />
        <mxCell id="1" parent="0" />
        <mxCell id="1745" value="" style="edgeStyle=none;rounded=0;jumpStyle=none;html=1;shadow=0;labelBackgroundColor=none;startArrow=none;startFill=0;endArrow=classic;endFill=1;jettySize=auto;orthogonalLoop=1;strokeColor=#2F5B7C;strokeWidth=3;fontFamily=Helvetica;fontSize=16;fontColor=#23445D;spacing=5;exitX=0.5;exitY=1;exitDx=0;exitDy=0;entryX=0.5;entryY=0;entryDx=0;entryDy=0;" parent="1" source="Kff8pXqbPVkJYYZNVOtv-1779" target="Kff8pXqbPVkJYYZNVOtv-1780" edge="1">
          <mxGeometry relative="1" as="geometry">
            <mxPoint x="570" y="272" as="sourcePoint" />
            <mxPoint x="570" y="360" as="targetPoint" />
          </mxGeometry>
        </mxCell>
        <mxCell id="1747" value="" style="edgeStyle=none;rounded=0;jumpStyle=none;html=1;shadow=0;labelBackgroundColor=none;startArrow=none;startFill=0;endArrow=classic;endFill=1;jettySize=auto;orthogonalLoop=1;strokeColor=#2F5B7C;strokeWidth=3;fontFamily=Helvetica;fontSize=16;fontColor=#23445D;spacing=5;exitX=0.5;exitY=1;exitDx=0;exitDy=0;" parent="1" source="Kff8pXqbPVkJYYZNVOtv-1780" target="1760" edge="1">
          <mxGeometry relative="1" as="geometry">
            <mxPoint x="570" y="452.5" as="sourcePoint" />
          </mxGeometry>
        </mxCell>
        <mxCell id="1748" value="" style="edgeStyle=none;rounded=0;jumpStyle=none;html=1;shadow=0;labelBackgroundColor=none;startArrow=none;startFill=0;endArrow=classic;endFill=1;jettySize=auto;orthogonalLoop=1;strokeColor=#6F0000;strokeWidth=3;fontFamily=Helvetica;fontSize=16;fontColor=#23445D;spacing=5;exitX=0;exitY=0.5;exitDx=0;exitDy=0;fillColor=#a20025;" parent="1" source="Kff8pXqbPVkJYYZNVOtv-1780" target="1753" edge="1">
          <mxGeometry relative="1" as="geometry">
            <mxPoint x="493" y="415.5" as="sourcePoint" />
          </mxGeometry>
        </mxCell>
        <mxCell id="1753" value="CANCELLED" style="rounded=1;whiteSpace=wrap;html=1;shadow=0;labelBackgroundColor=none;strokeColor=none;strokeWidth=3;fillColor=#e85642;fontFamily=Helvetica;fontSize=14;fontColor=#FFFFFF;align=center;spacing=5;fontStyle=0;arcSize=7;perimeterSpacing=2;" parent="1" vertex="1">
          <mxGeometry x="215" y="374.5" width="150" height="60" as="geometry" />
        </mxCell>
        <mxCell id="1758" value="" style="edgeStyle=none;rounded=0;jumpStyle=none;html=1;shadow=0;labelBackgroundColor=none;startArrow=none;startFill=0;endArrow=classic;endFill=1;jettySize=auto;orthogonalLoop=1;strokeColor=#1699D3;strokeWidth=3;fontFamily=Helvetica;fontSize=14;fontColor=#FFFFFF;spacing=5;" parent="1" source="1760" target="1762" edge="1">
          <mxGeometry relative="1" as="geometry" />
        </mxCell>
        <mxCell id="1760" value="STARTED" style="rounded=1;whiteSpace=wrap;html=1;shadow=0;labelBackgroundColor=none;strokeColor=#006EAF;strokeWidth=3;fillColor=#1ba1e2;fontFamily=Helvetica;fontSize=14;align=center;spacing=5;fontStyle=0;arcSize=7;perimeterSpacing=2;fontColor=#ffffff;" parent="1" vertex="1">
          <mxGeometry x="495" y="570.5" width="150" height="60" as="geometry" />
        </mxCell>
        <mxCell id="1762" value="DONE" style="rounded=1;whiteSpace=wrap;html=1;shadow=0;labelBackgroundColor=none;strokeColor=#2D7600;strokeWidth=3;fillColor=#60a917;fontFamily=Helvetica;fontSize=14;fontColor=#ffffff;align=center;spacing=5;arcSize=7;perimeterSpacing=2;" parent="1" vertex="1">
          <mxGeometry x="495" y="716.5" width="150" height="60" as="geometry" />
        </mxCell>
        <mxCell id="1767" value="CREATED" style="rounded=1;whiteSpace=wrap;html=1;shadow=0;labelBackgroundColor=none;strokeWidth=3;fontFamily=Helvetica;fontSize=14;align=center;spacing=5;arcSize=7;perimeterSpacing=2;fontStyle=0;fontColor=#FFFFFF;fillColor=#9E9E9E;" parent="1" vertex="1">
          <mxGeometry x="495" y="50.5" width="150" height="60" as="geometry" />
        </mxCell>
        <mxCell id="1768" value="" style="edgeStyle=none;rounded=0;jumpStyle=none;html=1;shadow=0;labelBackgroundColor=none;startArrow=none;startFill=0;endArrow=classic;endFill=1;jettySize=auto;orthogonalLoop=1;strokeColor=#F08705;strokeWidth=3;fontFamily=Helvetica;fontSize=14;fontColor=#FFFFFF;spacing=5;entryX=0.5;entryY=0;entryDx=0;entryDy=0;exitX=0.5;exitY=1;exitDx=0;exitDy=0;" parent="1" source="1767" target="Kff8pXqbPVkJYYZNVOtv-1779" edge="1">
          <mxGeometry relative="1" as="geometry">
            <mxPoint x="530" y="140" as="sourcePoint" />
            <mxPoint x="570" y="208" as="targetPoint" />
          </mxGeometry>
        </mxCell>
        <mxCell id="Kff8pXqbPVkJYYZNVOtv-1779" value="&lt;span style=&quot;font-size: 13px; font-weight: 700;&quot;&gt;APPLICATIONS_OPEN&lt;/span&gt;" style="rounded=1;whiteSpace=wrap;html=1;shadow=0;labelBackgroundColor=none;strokeColor=none;strokeWidth=3;fillColor=#f5af58;fontFamily=Helvetica;fontSize=14;align=center;spacing=5;arcSize=7;perimeterSpacing=2;fontColor=#FFFFFF;" vertex="1" parent="1">
          <mxGeometry x="495" y="200" width="150" height="60" as="geometry" />
        </mxCell>
        <mxCell id="Kff8pXqbPVkJYYZNVOtv-1780" value="&lt;span style=&quot;font-weight: 700&quot;&gt;&lt;font style=&quot;font-size: 12px&quot;&gt;APPLICATIONS_CLOSED&lt;/font&gt;&lt;/span&gt;" style="rounded=1;whiteSpace=wrap;html=1;shadow=0;labelBackgroundColor=none;strokeColor=none;strokeWidth=3;fillColor=#f5af58;fontFamily=Helvetica;fontSize=14;align=center;spacing=5;arcSize=7;perimeterSpacing=2;fontColor=#FFFFFF;" vertex="1" parent="1">
          <mxGeometry x="495" y="374.5" width="150" height="60" as="geometry" />
        </mxCell>
        <mxCell id="Kff8pXqbPVkJYYZNVOtv-1781" value="" style="edgeStyle=none;rounded=0;jumpStyle=none;html=1;shadow=0;labelBackgroundColor=none;startArrow=none;startFill=0;endArrow=classic;endFill=1;jettySize=auto;orthogonalLoop=1;strokeColor=#6F0000;strokeWidth=3;fontFamily=Helvetica;fontSize=16;fontColor=#23445D;spacing=5;exitX=0;exitY=0.5;exitDx=0;exitDy=0;fillColor=#a20025;" edge="1" parent="1" target="Kff8pXqbPVkJYYZNVOtv-1782">
          <mxGeometry relative="1" as="geometry">
            <mxPoint x="495" y="230" as="sourcePoint" />
          </mxGeometry>
        </mxCell>
        <mxCell id="Kff8pXqbPVkJYYZNVOtv-1782" value="CANCELLED" style="rounded=1;whiteSpace=wrap;html=1;shadow=0;labelBackgroundColor=none;strokeColor=none;strokeWidth=3;fillColor=#e85642;fontFamily=Helvetica;fontSize=14;fontColor=#FFFFFF;align=center;spacing=5;fontStyle=0;arcSize=7;perimeterSpacing=2;" vertex="1" parent="1">
          <mxGeometry x="217" y="200" width="150" height="60" as="geometry" />
        </mxCell>
        <mxCell id="Kff8pXqbPVkJYYZNVOtv-1783" value="" style="edgeStyle=none;rounded=0;jumpStyle=none;html=1;shadow=0;labelBackgroundColor=none;startArrow=none;startFill=0;endArrow=classic;endFill=1;jettySize=auto;orthogonalLoop=1;strokeColor=#6F0000;strokeWidth=3;fontFamily=Helvetica;fontSize=16;fontColor=#23445D;spacing=5;exitX=0;exitY=0.5;exitDx=0;exitDy=0;fillColor=#a20025;" edge="1" parent="1" target="Kff8pXqbPVkJYYZNVOtv-1784">
          <mxGeometry relative="1" as="geometry">
            <mxPoint x="493" y="600.5" as="sourcePoint" />
          </mxGeometry>
        </mxCell>
        <mxCell id="Kff8pXqbPVkJYYZNVOtv-1784" value="CANCELLED" style="rounded=1;whiteSpace=wrap;html=1;shadow=0;labelBackgroundColor=none;strokeColor=none;strokeWidth=3;fillColor=#e85642;fontFamily=Helvetica;fontSize=14;fontColor=#FFFFFF;align=center;spacing=5;fontStyle=0;arcSize=7;perimeterSpacing=2;" vertex="1" parent="1">
          <mxGeometry x="215" y="570.5" width="150" height="60" as="geometry" />
        </mxCell>
      </root>
    </mxGraphModel>
  </diagram>
</mxfile>
